<svg width="21" height="21" viewBox="0 0 21 21" fill="none" xmlns="http://www.w3.org/2000/svg">
<path d="M6.38982 8.13245C6.76372 8.47454 6.76372 9.02837 6.38982 9.36959C6.01591 9.71169 5.41059 9.71169 5.03765 9.36959C4.66374 9.0275 4.66374 8.47367 5.03765 8.13245C5.41155 7.79035 6.01687 7.79035 6.38982 8.13245ZM20.23 11.3093L19.0442 12.4301C19.223 13.2035 18.9868 14.0417 18.3318 14.641L12.3608 20.2834C11.8521 20.7489 11.1894 21 10.4846 21C9.77981 21 9.11711 20.7489 8.61985 20.2931L0 12.4082L0.96488 4.42626L9.70235 3.3326L17.9865 10.9121L18.8663 10.0809C19.1608 9.81231 19.1608 9.39147 18.8778 9.13249L10.9111 1.84522L3.97331 2.66503L3.72851 0.930047L11.5977 0L20.229 7.89709C21.257 8.83764 21.257 10.3688 20.229 11.3102L20.23 11.3093ZM16.9796 12.4651L9.02053 5.18482L2.70243 5.97575L2.00339 11.7651L9.97202 19.0559C10.2465 19.307 10.7227 19.307 10.9971 19.0559L16.9681 13.4135C17.2626 13.1449 17.2626 12.7241 16.9796 12.4651Z" fill="#004A94"/>
</svg>
