<svg width="21" height="21" viewBox="0 0 21 21" fill="none" xmlns="http://www.w3.org/2000/svg">
<path d="M15.7493 7C17.6795 7 19.2492 5.43025 19.2492 3.5C19.2492 1.56975 17.6795 0 15.7493 0C13.8192 0 12.2495 1.56975 12.2495 3.5C12.2495 5.43025 13.8192 7 15.7493 7ZM15.7493 1.75C16.7144 1.75 17.4993 2.53487 17.4993 3.5C17.4993 4.46513 16.7144 5.25 15.7493 5.25C14.7843 5.25 13.9994 4.46513 13.9994 3.5C13.9994 2.53487 14.7843 1.75 15.7493 1.75ZM6.99971 9.625C6.99971 11.5553 8.56939 13.125 10.4996 13.125C12.4297 13.125 13.9994 11.5553 13.9994 9.625C13.9994 7.69475 12.4297 6.125 10.4996 6.125C8.56939 6.125 6.99971 7.69475 6.99971 9.625ZM10.4996 7.875C11.4646 7.875 12.2495 8.65987 12.2495 9.625C12.2495 10.5901 11.4646 11.375 10.4996 11.375C9.53448 11.375 8.74964 10.5901 8.74964 9.625C8.74964 8.65987 9.53448 7.875 10.4996 7.875ZM5.24978 7C7.17995 7 8.74964 5.43025 8.74964 3.5C8.74964 1.56975 7.17995 0 5.24978 0C3.31961 0 1.74993 1.56975 1.74993 3.5C1.74993 5.43025 3.31961 7 5.24978 7ZM5.24978 1.75C6.21487 1.75 6.99971 2.53487 6.99971 3.5C6.99971 4.46513 6.21487 5.25 5.24978 5.25C4.2847 5.25 3.49985 4.46513 3.49985 3.5C3.49985 2.53487 4.2847 1.75 5.24978 1.75ZM20.1242 19.25H15.7493C15.7493 16.3546 13.3948 14 10.4996 14C7.60431 14 5.24978 16.3546 5.24978 19.25H0.874964C0.391109 19.25 0 19.6411 0 20.125C0 20.6089 0.391109 21 0.874964 21H20.1242C20.608 21 20.9991 20.6089 20.9991 20.125C20.9991 19.6411 20.608 19.25 20.1242 19.25ZM10.4996 15.75C12.4297 15.75 13.9994 17.3197 13.9994 19.25H6.99971C6.99971 17.3197 8.56939 15.75 10.4996 15.75ZM20.9991 14C20.9991 14.4839 20.608 14.875 20.1242 14.875C19.6403 14.875 19.2492 14.4839 19.2492 14C19.2492 12.3182 18.0461 10.8062 16.4502 10.4825C15.9768 10.3862 15.6706 9.92425 15.7668 9.45C15.8631 8.9775 16.3207 8.67475 16.7993 8.76663C19.2326 9.26013 21 11.4616 21 13.9991L20.9991 14ZM0 14C0 11.4625 1.76743 9.261 4.2007 8.7675C4.68193 8.67825 5.13604 8.97837 5.23316 9.45087C5.32853 9.92513 5.02317 10.3862 4.54981 10.4834C2.95388 10.8062 1.7508 12.3191 1.7508 14.0009C1.7508 14.4847 1.35969 14.8759 0.875839 14.8759C0.391984 14.8759 0.000874964 14.4847 0.000874964 14.0009L0 14Z" fill="#004A94"/>
</svg>
