<svg width="21" height="21" viewBox="0 0 21 21" fill="none" xmlns="http://www.w3.org/2000/svg">
<path d="M13.1046 6.125C13.1134 5.97975 13.1265 5.83537 13.1265 5.6875C13.1265 5.53963 13.1125 5.39525 13.1046 5.25H16.1894C16.598 5.25 16.9761 5.36987 17.3042 5.565C16.9568 5.70587 16.6435 5.90887 16.353 6.14075C16.2987 6.13375 16.2462 6.12413 16.1902 6.12413H13.1055L13.1046 6.125ZM17.502 20.125H3.5004V12.7969C3.19937 12.7041 2.90883 12.5886 2.6253 12.46V21H18.3771V15.1935L17.502 16.0685V20.125ZM5.68815 11.375C2.55179 11.375 0 8.8235 0 5.6875C0 2.5515 2.55179 0 5.68815 0C8.82451 0 11.3763 2.5515 11.3763 5.6875C11.3763 8.8235 8.82451 11.375 5.68815 11.375ZM5.68815 10.5C8.34233 10.5 10.5012 8.3405 10.5012 5.6875C10.5012 3.0345 8.34233 0.875 5.68815 0.875C3.03397 0.875 0.8751 3.0345 0.8751 5.6875C0.8751 8.3405 3.03397 10.5 5.68815 10.5ZM8.87439 4.60425L8.26095 3.98037L5.2331 6.95713C5.18584 7.007 5.07646 7.00525 5.0222 6.95188L3.39801 5.37687L2.78894 6.006L4.40875 7.57575C4.60215 7.76912 4.85856 7.875 5.13071 7.875C5.40287 7.875 5.65927 7.76912 5.85004 7.57838L8.87527 4.60425H8.87439ZM20.361 10.7345L13.5947 17.5H10.5003V14.4069L17.2666 7.64137C18.0918 6.8145 19.5349 6.8145 20.3601 7.64137C21.2133 8.4945 21.2142 9.88225 20.361 10.7345ZM19.7423 8.26C19.247 7.76475 18.3815 7.76475 17.8862 8.26L11.3763 14.7691V16.625H13.2333L19.7431 10.1159C20.2551 9.604 20.2551 8.77187 19.7431 8.26H19.7423Z" fill="#004A94"/>
</svg>
