<svg width="21" height="21" viewBox="0 0 21 21" fill="none" xmlns="http://www.w3.org/2000/svg">
<path d="M7 13.9738H11.375V15.3737H9.84375V20.9737H8.44375V15.3737H7V13.9738ZM14.7875 16.8175H13.5511V13.9738H12.1511V20.9737H13.5511V18.2175H14.7875V20.9737H16.1875V13.9738H14.7875V16.8175ZM19.6 18.9875C19.6 19.3253 19.3253 19.6 18.9875 19.6C18.6497 19.6 18.375 19.3253 18.375 18.9875V13.9738H16.975V18.9875C16.975 20.0979 17.8771 21 18.9875 21C20.0979 21 21 20.0979 21 18.9875V13.9738H19.6V18.9875ZM18.375 1.75H15.75V0H13.125V1.75H7.875V0H5.25V1.75H2.625C1.17775 1.75 0 2.92775 0 4.375V21H6.125V18.375H2.625V8.75H18.375V12.25H21V4.375C21 2.92775 19.8223 1.75 18.375 1.75Z" fill="#004A94"/>
</svg>
