<svg width="21" height="21" viewBox="0 0 21 21" fill="none" xmlns="http://www.w3.org/2000/svg">
<path d="M18.375 0H2.625C1.17775 0 0 1.17775 0 2.625V7H0.875V21H9.926C9.30912 20.5012 8.76925 19.9106 8.3265 19.25H2.625V7H18.375V7.819C19.012 8.13575 19.6 8.53562 20.125 9.0055V7H21V2.625C21 1.17775 19.8223 0 18.375 0ZM1.75 2.625C1.75 2.14287 2.14287 1.75 2.625 1.75H18.375C18.858 1.75 19.25 2.14287 19.25 2.625V5.25H1.75V2.625ZM14.875 8.75C11.4984 8.75 8.75 11.4975 8.75 14.875C8.75 18.2525 11.4984 21 14.875 21C18.2516 21 21 18.2525 21 14.875C21 11.4975 18.2516 8.75 14.875 8.75ZM14.875 19.25C12.4626 19.25 10.5 17.2874 10.5 14.875C10.5 12.4626 12.4626 10.5 14.875 10.5C17.2874 10.5 19.25 12.4626 19.25 14.875C19.25 17.2874 17.2874 19.25 14.875 19.25ZM15.75 14.5128L17.2436 16.0064L16.0064 17.2436L14 15.2372V12.25H15.75V14.5128Z" fill="#004A94"/>
</svg>
