<svg width="21" height="21" viewBox="0 0 21 21" fill="none" xmlns="http://www.w3.org/2000/svg">
<path d="M19.25 7.875H11.375V13.125H19.25C20.2125 13.125 21 12.3375 21 11.375V9.625C21 8.6625 20.2125 7.875 19.25 7.875ZM20.125 11.375C20.125 11.8562 19.7313 12.25 19.25 12.25H12.25V8.75H19.25C19.7313 8.75 20.125 9.14375 20.125 9.625V11.375ZM19.25 0H11.375V5.25H19.25C20.2125 5.25 21 4.4625 21 3.5V1.75C21 0.7875 20.2125 0 19.25 0ZM20.125 3.5C20.125 3.98125 19.7313 4.375 19.25 4.375H12.25V0.875H19.25C19.7313 0.875 20.125 1.26875 20.125 1.75V3.5ZM19.25 15.75H11.375V21H19.25C20.2125 21 21 20.2125 21 19.25V17.5C21 16.5375 20.2125 15.75 19.25 15.75ZM20.125 19.25C20.125 19.7313 19.7313 20.125 19.25 20.125H12.25V16.625H19.25C19.7313 16.625 20.125 17.0187 20.125 17.5V19.25ZM7.4375 11.375H2.1875C0.98 11.375 0 12.355 0 13.5625V21H9.625V13.5625C9.625 12.355 8.645 11.375 7.4375 11.375ZM8.75 20.125H0.875V13.5625C0.875 12.8363 1.46125 12.25 2.1875 12.25H7.4375C8.16375 12.25 8.75 12.8363 8.75 13.5625V20.125ZM7.4375 0H2.1875C0.98 0 0 0.98 0 2.1875V9.625H9.625V2.1875C9.625 0.98 8.645 0 7.4375 0ZM8.75 8.75H0.875V2.1875C0.875 1.46125 1.46125 0.875 2.1875 0.875H7.4375C8.16375 0.875 8.75 1.46125 8.75 2.1875V8.75Z" fill="#004A94"/>
</svg>
